<?xml version="1.0" encoding="utf-8"?>
<!-- Generator: Adobe Illustrator 25.0.0, SVG Export Plug-In . SVG Version: 6.00 Build 0)  -->
<svg version="1.1" id="Calque_1" xmlns="http://www.w3.org/2000/svg" xmlns:xlink="http://www.w3.org/1999/xlink" x="0px" y="0px"
	 viewBox="0 0 121 121" style="enable-background:new 0 0 121 121;" xml:space="preserve">
<style type="text/css">
	.st0{fill:#FFFFFF;}
	.st1{fill:#CE2337;}
	.st2{fill:#4B5665;}
	.st3{fill:#1A8DA8;}
	.st4{fill:#F29303;}
</style>
<path class="st0" d="M121,80.5v25.4l-0.3,0.2c-0.2-0.2-0.4-0.2-0.8-0.2c-2.5,0-5-0.2-7.4-0.8c-7.9-1.9-15.4-4.6-22.8-7.7
	c-10.1-4.2-20-9.3-30.1-13.5c-3.6-1.5-7.1-3.2-10.8-4.1c-1.6-0.4-3.3-0.8-4.8,0.4c-1.6,1.4-2.7,3.1-3.6,5c-2,4.3-3,8.8-3.8,13.3
	c-0.6,3.8-0.8,7.6-1.3,11.2c-0.4,3.1-1.4,5.9-3.5,8.2c-1.2,1.3-2.8,2-4.3,3.1h72.6l-0.1,0h-82c0,0-0.1,0-0.2,0c0.1,0,0.2,0,0.4,0
	c0-0.1-0.1-0.2-0.2-0.3c-2.3-1.1-3.1-3.2-3.5-5.4c-1-5.6-1.8-11.2-2.9-16.9c-1.2-6.5-2.6-12.9-4-19.3c-1.7-7.5-3.5-14.9-5.5-22.3
	c-0.6-2.6-1.2-5.2-2.3-8V9c0.4-0.1,0.8-0.1,1.2-0.2c0,0,0,0,0,0c0.2,0.1,0.4,0.1,0.6,0.1c1.9-0.1,3.7,0,5.4,0.9
	c1.8,1,3.2,2.3,4.4,3.9c2.1,2.7,3.8,5.6,5,8.9c1.5,4.3,2.7,8.7,3.9,13c0.9,3.1,1.8,6.2,2.7,9.3c0.7,2.4,1.6,4.7,2.7,6.9
	c1,1.9,2.5,1.9,3.6,0c0.5-1,1.1-2,1.5-3.1c2.8-7,5.9-13.7,9.4-20.3c5.4-10,11.4-19.6,19.4-28.3H59c-6,0-12,0-18,0c0.1,0,0.1,0,0.1,0
	h55.9c0,0.1,0,0.2,0,0.3c0,0.1-0.1,0.1,0,0.3c0,0.6-0.3,1.2-0.3,1.8c0,2.5-0.9,4.9-2.2,7c-1.9,3.3-4.3,6.2-6.9,8.9
	c-2.5,2.6-5.1,5-7.9,7.3c-2.6,2.2-5.3,4.2-7.8,6.6c-2.9,2.7-5.8,5.4-8.2,8.6c-2.7,3.5-4.7,7.2-4.5,11.8c0.1,2,0.8,3.7,2.1,5.1
	c2.2,2.5,4.8,4.4,7.7,5.9c7,3.8,14.3,6.6,21.9,9.1c5.9,1.9,11.6,3.9,17.5,5.6c3.7,1.1,7.5,2.3,11.2,3.4
	C120.6,81.7,121,81.6,121,80.5z"/>
<g>
	<path class="st1" d="M121,46.4c0,11.3,0,22.7,0,34c0,1.1-0.4,1.2-1.3,0.9c-3.7-1.1-7.5-2.3-11.1-3.4c-5.9-1.7-11.6-3.7-17.5-5.6
		c-7.6-2.5-14.9-5.3-21.9-9.1c-2.9-1.5-5.5-3.4-7.7-5.9c-1.3-1.4-2-3.1-2.1-5.1c-0.2-4.7,1.8-8.4,4.5-11.8c2.4-3.2,5.3-5.9,8.2-8.6
		c2.5-2.4,5.2-4.4,7.8-6.6c2.8-2.3,5.4-4.7,7.9-7.3c2.6-2.7,5-5.6,6.9-8.9c1.3-2.1,2.2-4.5,2.2-7c0-0.6,0.3-1.2,0.3-1.8
		c-0.1-0.5,0.4-0.4,0.7-0.4c4.3,0.1,8.6-0.3,12.8,0.3c4.4,0.6,9.3,5.4,10.1,9.9c0.3,1.6,0.4,3.1,0.4,4.7C121,25.3,121,35.9,121,46.4
		L121,46.4z"/>
	<path class="st2" d="M27.6,121c1.5-1.1,3.1-1.8,4.3-3.1c2.1-2.3,3.1-5.1,3.5-8.2c0.5-3.7,0.7-7.5,1.3-11.2
		c0.8-4.6,1.8-9.1,3.8-13.3c0.9-1.9,2-3.6,3.6-5c1.5-1.2,3.2-0.8,4.8-0.4c3.8,0.9,7.3,2.6,10.8,4.1c10.1,4.3,20,9.4,30.2,13.5
		c7.4,3.1,14.9,5.8,22.8,7.7c2.4,0.6,4.9,0.8,7.4,0.8c0.8,0,1,0.2,1,1c0.2,7-4,12.3-10.8,14c-0.8,0.2-1.7,0.1-2.5,0.1
		c-26.4,0-52.7,0-79.1,0C28.3,121,28,121,27.6,121z"/>
	<path class="st3" d="M59.7,0.1c-8,8.7-14,18.2-19.4,28.3c-3.5,6.6-6.6,13.3-9.4,20.3c-0.4,1.1-1,2.1-1.5,3.1
		c-1.1,1.9-2.6,1.9-3.6,0c-1.1-2.2-2-4.5-2.7-6.9c-0.9-3.1-1.8-6.2-2.7-9.3c-1.2-4.4-2.4-8.8-3.9-13c-1.2-3.3-2.9-6.2-5-8.9
		c-1.2-1.6-2.6-2.9-4.4-3.9c-1.7-0.9-3.5-1-5.4-0.9c-1.1,0-1.2-0.4-0.8-1.2c2.3-4.8,6.1-7.6,11.4-7.7c15.5-0.1,31,0,46.5,0
		C59.2,0.1,59.3,0.1,59.7,0.1z"/>
	<path class="st4" d="M18.3,121c-3.4-0.1-6.7,0.4-10-0.8c-4.2-1.6-8.1-6.4-8.3-10.8C0,107.5,0,105.8,0,104c0-18.3,0-36.6,0-55.2
		c1.1,2.8,1.7,5.4,2.3,8c2,7.4,3.8,14.8,5.5,22.3c1.4,6.4,2.8,12.8,4,19.3c1.1,5.7,1.9,11.3,2.9,16.9c0.4,2.2,1.2,4.3,3.5,5.4
		C18.2,120.8,18.3,120.9,18.3,121z"/>
</g>
</svg>
